<svg width="200px" height="200px" viewBox="0 0 108 144" fill="none" xmlns="http://www.w3.org/2000/svg"><g id="Group 91"><path id="Vector" d="M27.0218 132.118C23.4683 128.563 20.647 124.337 18.7223 119.684C16.7976 115.03 15.8064 110.041 15.8048 105.001V70.1628L0 54.2809L1.76494 52.5029L15.8197 38.3732V15.882H38.2063L54.011 0L69.8136 15.882H92.195V38.3732L108 54.255L92.195 70.1372V104.976C92.194 110.015 91.2022 115.004 89.2775 119.658C87.3529 124.312 84.5347 128.537 80.9805 132.093C77.4416 135.664 73.2353 138.498 68.6037 140.433C63.9722 142.367 59.0042 143.362 53.9887 143.364C48.9785 143.363 44.0191 142.369 39.3913 140.44C34.7635 138.51 30.5606 135.682 27.0218 132.118ZM20.8009 105.001C20.8032 109.381 21.6655 113.718 23.34 117.762C25.0146 121.807 27.4687 125.479 30.5591 128.568C33.6334 131.673 37.2861 134.138 41.3104 135.821C45.335 137.504 49.6524 138.371 54.011 138.374C58.3699 138.371 62.6848 137.504 66.7091 135.821C70.7337 134.138 74.3865 131.673 77.4608 128.568C80.5516 125.479 83.0051 121.807 84.6798 117.763C86.3542 113.719 87.217 109.381 87.2189 105.001V69.4709H70.1721L71.1899 68.2878C72.8126 66.3855 74.0751 64.201 74.9165 61.8424C75.6897 59.6293 76.1087 57.3068 76.1564 54.9619H72.94C72.7657 59.7562 70.7892 64.3061 67.4088 67.6935C65.6531 69.4622 63.5668 70.8643 61.27 71.8199C58.9735 72.7758 56.5119 73.266 54.0262 73.2623C51.5402 73.266 49.0786 72.7758 46.7821 71.8199C44.4856 70.8643 42.399 69.4622 40.6433 67.6935C37.2647 64.3055 35.2901 59.7555 35.1171 54.9619H31.8985C31.9456 57.3065 32.3631 59.6287 33.1331 61.8424C33.9754 64.2004 35.2383 66.3849 36.8597 68.2878L37.8803 69.4709H20.8308L20.8009 105.001ZM44.1658 64.1434C45.4581 65.4446 46.9936 66.4762 48.6838 67.1796C50.3744 67.883 52.1868 68.2436 54.0163 68.2414C55.8458 68.2442 57.6579 67.8836 59.3484 67.1802C61.0386 66.4768 62.5719 65.4449 63.864 64.1434C66.3109 61.6981 67.7664 58.4251 67.9441 54.9619H40.1232C40.2898 58.4194 41.7288 61.6919 44.1609 64.1434H44.1658ZM76.2535 62.3189C75.5225 64.3656 74.491 66.291 73.194 68.0314H87.2564L100.261 54.9619H77.5852C77.5315 57.4698 77.0797 59.9534 76.2485 62.3189H76.2535ZM34.8308 68.0314C33.5329 66.2917 32.5014 64.3659 31.7713 62.3189C30.9446 59.9528 30.4999 57.4692 30.4521 54.9619H7.73935L20.7437 68.0314H34.8308ZM76.1564 53.5279H100.266L87.7715 40.9705L71.7627 47.631C72.4609 49.5215 72.8535 51.5124 72.9251 53.5279H76.1564ZM67.9239 53.5279C67.8566 52.1735 67.5921 50.8358 67.1424 49.5571L60.8569 52.175C60.99 52.6176 61.0802 53.0726 61.1233 53.5329L67.9239 53.5279ZM46.904 53.5279C46.9505 53.067 47.0414 52.6123 47.1778 52.17L40.8874 49.5521C40.4365 50.8305 40.1744 52.1682 40.1083 53.5226L46.904 53.5279ZM31.8734 53.5279H35.1022C35.175 51.5124 35.5677 49.5219 36.2645 47.631L20.2607 40.9705L20.0715 41.16L7.75926 53.5329L31.8734 53.5279ZM47.7181 50.848C47.9358 50.4416 48.1938 50.0573 48.4847 49.7004L43.6705 44.8691C42.7659 45.8761 42.0123 47.0099 41.4326 48.235L47.7181 50.848ZM60.3067 50.848L66.5922 48.23C66.0144 47.004 65.2605 45.8698 64.3543 44.8641L59.5426 49.6955C59.8359 50.0542 60.0915 50.4425 60.3067 50.8536V50.848ZM58.5318 48.686L63.3386 43.8496C62.3365 42.9396 61.2095 42.1804 59.9907 41.5957L57.3843 47.9124C57.7903 48.1343 58.1752 48.3952 58.5318 48.691V48.686ZM49.488 48.686C49.8441 48.3943 50.2268 48.1372 50.6306 47.9174L48.0242 41.6007C46.8078 42.1873 45.6827 42.9461 44.6813 43.8546L49.488 48.686ZM51.9449 47.3695C52.3856 47.2368 52.8387 47.1476 53.2968 47.1031V40.2687C51.9486 40.3369 50.6178 40.6021 49.3463 41.0575L51.9449 47.3695ZM56.075 47.3695L58.676 41.0525C57.4064 40.5965 56.0746 40.331 54.728 40.2637V47.0981C55.1846 47.147 55.6361 47.2393 56.075 47.3745V47.3695ZM36.8048 46.309C37.6462 44.4783 38.7689 42.7925 40.1332 41.3137L20.8009 21.8864V39.6491L36.8048 46.309ZM71.2175 46.309L87.2238 39.6491V21.8864L67.8917 41.3137C69.2547 42.7934 70.3768 44.4811 71.2126 46.3139L71.2175 46.309ZM66.8834 40.2995L86.2106 20.872H68.5389L66.3332 26.226C66.0005 25.8525 65.6171 25.5262 65.1957 25.2573L67.2345 20.3235L54.7404 7.76682V35.2425C56.7458 35.3158 58.7263 35.71 60.6079 36.4106L61.6983 33.7671C62.0556 34.0938 62.4811 34.3372 62.9429 34.4793L61.9222 36.9592C63.7387 37.8034 65.4121 38.9307 66.8785 40.2995H66.8834ZM41.1414 40.2995C42.6114 38.927 44.2899 37.7978 46.1125 36.9542L39.4859 20.872H21.8091L41.1414 40.2995ZM47.4294 36.4106C49.3109 35.71 51.2915 35.3158 53.2968 35.2425V7.76682L40.8002 20.3235L47.4294 36.4106ZM51.507 132.41V118.373C47.9578 117.83 44.6757 116.159 42.1419 113.603C40.5801 112.042 39.3411 110.185 38.495 108.141C37.649 106.097 37.2114 103.905 37.2108 101.692V87.3462H42.2092V101.692C42.2098 103.246 42.5153 104.785 43.1104 106.22C43.7053 107.655 44.5761 108.958 45.6743 110.052C46.7644 111.155 48.0602 112.03 49.488 112.627C50.9159 113.224 52.4495 113.531 53.9961 113.531C55.5428 113.531 57.0739 113.224 58.5021 112.627C59.9299 112.03 61.2256 111.155 62.3155 110.052C63.4127 108.957 64.2829 107.654 64.8772 106.219C65.4711 104.785 65.7759 103.246 65.7756 101.692V87.3462H70.7793V101.692C70.779 103.905 70.3423 106.097 69.4972 108.141C68.6521 110.185 67.4137 112.041 65.8528 113.603C63.3159 116.157 60.0332 117.829 56.4831 118.373V132.41H51.507ZM51.507 107.86V81.1678H37.2331V76.1417H70.7992V81.1678H56.5228V107.86H51.507ZM62.0593 33.1472C61.8171 32.9088 61.6254 32.624 61.4942 32.3098C61.3627 31.996 61.2948 31.6588 61.2948 31.3181C61.2948 30.9774 61.3627 30.6402 61.4942 30.3262C61.6254 30.0121 61.8171 29.7279 62.0593 29.4894C62.3787 29.1725 62.7738 28.9433 63.2068 28.8239C63.6397 28.7046 64.0978 28.6989 64.5335 28.8077C64.5518 28.3883 64.4414 27.9737 64.2175 27.6194C64.0547 27.3731 63.8252 27.1791 63.5554 27.061V25.2936C64.3242 25.5209 65.0242 25.9361 65.5942 26.5025C66.0433 26.9466 66.3987 27.4763 66.6421 28.0604C66.8853 28.6444 67.0109 29.2708 67.0106 29.904C67.0118 30.9392 66.6772 31.9467 66.0569 32.7732C65.9632 32.9073 65.8572 33.0325 65.7409 33.1472C65.2518 33.6353 64.5906 33.9077 63.9012 33.9052C63.217 33.9049 62.5614 33.6325 62.0767 33.1472H62.0593Z" fill="#CAA56C"></path><path id="Vector_2" fill-rule="evenodd" clip-rule="evenodd" d="M77.0868 54.5176H105.004L100.024 58.7801H76.5465C76.9047 57.388 77.0865 55.9559 77.0868 54.5176ZM3.01562 54.5176H30.9331C30.9336 55.9559 31.115 57.388 31.4736 58.7801H7.99646L3.01562 54.5176Z" fill="#1080C2"></path><path id="Vector_3" fill-rule="evenodd" clip-rule="evenodd" d="M76.9087 59.498H100.758L95.7007 63.7606H75.1655C75.93 62.423 76.5164 60.9897 76.9087 59.498ZM7.25781 59.498H31.1122C31.5046 60.9897 32.091 62.423 32.8558 63.7606H12.3203L7.25781 59.498Z" fill="white"></path><path id="Vector_4" fill-rule="evenodd" clip-rule="evenodd" d="M11.5 64.4766H32.438C33.3554 66.0448 34.4824 67.4791 35.7877 68.7391H16.6593L11.5 64.4766ZM75.5788 64.4766H96.5169L91.3578 68.7391H72.2294C73.5347 67.4791 74.6618 66.0448 75.5788 64.4766Z" fill="#5CB85C"></path></g></svg>